<?xml version="1.0" encoding="utf-8"?>
<svg width="169" height="182" viewBox="0 0 169 182" fill="none" xmlns="http://www.w3.org/2000/svg">
<rect width="169" height="182" fill="#E5E5E5"/>
<g clip-path="url(#clip0_0_1)">
<rect width="1280" height="6262" transform="translate(-723 -870)" fill="white"/>
<path d="M-722.85 -790H557.15V-240L-722.85 280V-790Z" fill="url(#paint0_linear_0_1)"/>
<path d="M18.5704 175.24C17.1171 175.24 15.8037 174.927 14.6304 174.3C13.4704 173.673 12.5571 172.813 11.8904 171.72C11.2371 170.613 10.9104 169.373 10.9104 168C10.9104 166.627 11.2371 165.393 11.8904 164.3C12.5571 163.193 13.4704 162.327 14.6304 161.7C15.8037 161.073 17.1171 160.76 18.5704 160.76C20.0237 160.76 21.3304 161.073 22.4904 161.7C23.6504 162.327 24.5637 163.193 25.2304 164.3C25.8971 165.393 26.2304 166.627 26.2304 168C26.2304 169.373 25.8971 170.613 25.2304 171.72C24.5637 172.813 23.6504 173.673 22.4904 174.3C21.3304 174.927 20.0237 175.24 18.5704 175.24ZM18.5704 172.48C19.3971 172.48 20.1437 172.293 20.8104 171.92C21.4771 171.533 21.9971 171 22.3704 170.32C22.7571 169.64 22.9504 168.867 22.9504 168C22.9504 167.133 22.7571 166.36 22.3704 165.68C21.9971 165 21.4771 164.473 20.8104 164.1C20.1437 163.713 19.3971 163.52 18.5704 163.52C17.7437 163.52 16.9971 163.713 16.3304 164.1C15.6637 164.473 15.1371 165 14.7504 165.68C14.3771 166.36 14.1904 167.133 14.1904 168C14.1904 168.867 14.3771 169.64 14.7504 170.32C15.1371 171 15.6637 171.533 16.3304 171.92C16.9971 172.293 17.7437 172.48 18.5704 172.48ZM34.7063 164.98C35.733 164.98 36.633 165.193 37.4063 165.62C38.1797 166.033 38.773 166.62 39.1863 167.38C39.613 168.14 39.8263 169.02 39.8263 170.02C39.8263 171.047 39.573 171.96 39.0663 172.76C38.573 173.547 37.8797 174.16 36.9863 174.6C36.093 175.027 35.0797 175.24 33.9463 175.24C32.0663 175.24 30.5863 174.64 29.5063 173.44C28.4397 172.227 27.9063 170.453 27.9063 168.12C27.9063 165.96 28.373 164.24 29.3063 162.96C30.253 161.667 31.6997 160.82 33.6463 160.42L38.7663 159.4L39.1863 162.08L34.6663 162.98C33.4397 163.22 32.5263 163.62 31.9263 164.18C31.3397 164.74 30.993 165.533 30.8863 166.56C31.353 166.053 31.913 165.667 32.5663 165.4C33.2197 165.12 33.933 164.98 34.7063 164.98ZM33.9663 172.82C34.7663 172.82 35.4063 172.56 35.8863 172.04C36.3797 171.52 36.6263 170.86 36.6263 170.06C36.6263 169.247 36.3797 168.6 35.8863 168.12C35.4063 167.64 34.7663 167.4 33.9663 167.4C33.153 167.4 32.4997 167.64 32.0063 168.12C31.513 168.6 31.2663 169.247 31.2663 170.06C31.2663 170.873 31.5197 171.54 32.0263 172.06C32.533 172.567 33.1797 172.82 33.9663 172.82ZM48.2834 164.08C49.2834 164.08 50.19 164.313 51.0034 164.78C51.83 165.233 52.4767 165.88 52.9434 166.72C53.41 167.547 53.6434 168.513 53.6434 169.62C53.6434 170.727 53.41 171.7 52.9434 172.54C52.4767 173.367 51.83 174.013 51.0034 174.48C50.19 174.933 49.2834 175.16 48.2834 175.16C46.91 175.16 45.83 174.727 45.0434 173.86V178.88H41.9234V164.24H44.9034V165.48C45.6767 164.547 46.8034 164.08 48.2834 164.08ZM47.7434 172.6C48.5434 172.6 49.1967 172.333 49.7034 171.8C50.2234 171.253 50.4834 170.527 50.4834 169.62C50.4834 168.713 50.2234 167.993 49.7034 167.46C49.1967 166.913 48.5434 166.64 47.7434 166.64C46.9434 166.64 46.2834 166.913 45.7634 167.46C45.2567 167.993 45.0034 168.713 45.0034 169.62C45.0034 170.527 45.2567 171.253 45.7634 171.8C46.2834 172.333 46.9434 172.6 47.7434 172.6ZM59.8343 164.08C61.501 164.08 62.781 164.48 63.6743 165.28C64.5676 166.067 65.0143 167.26 65.0143 168.86V175H62.0943V173.66C61.5076 174.66 60.4143 175.16 58.8143 175.16C57.9876 175.16 57.2676 175.02 56.6543 174.74C56.0543 174.46 55.5943 174.073 55.2743 173.58C54.9543 173.087 54.7943 172.527 54.7943 171.9C54.7943 170.9 55.1676 170.113 55.9143 169.54C56.6743 168.967 57.841 168.68 59.4143 168.68H61.8943C61.8943 168 61.6876 167.48 61.2743 167.12C60.861 166.747 60.241 166.56 59.4143 166.56C58.841 166.56 58.2743 166.653 57.7143 166.84C57.1676 167.013 56.701 167.253 56.3143 167.56L55.1943 165.38C55.781 164.967 56.481 164.647 57.2943 164.42C58.121 164.193 58.9676 164.08 59.8343 164.08ZM59.5943 173.06C60.1276 173.06 60.601 172.94 61.0143 172.7C61.4276 172.447 61.721 172.08 61.8943 171.6V170.5H59.7543C58.4743 170.5 57.8343 170.92 57.8343 171.76C57.8343 172.16 57.9876 172.48 58.2943 172.72C58.6143 172.947 59.0476 173.06 59.5943 173.06ZM74.607 169.4C75.247 169.6 75.7403 169.907 76.087 170.32C76.447 170.733 76.627 171.227 76.627 171.8C76.627 172.48 76.3936 173.08 75.927 173.6C75.4603 174.107 74.8203 174.5 74.007 174.78C73.1936 175.06 72.2736 175.2 71.247 175.2C70.407 175.2 69.5803 175.113 68.767 174.94C67.9536 174.767 67.2003 174.507 66.507 174.16L67.347 171.98C68.4803 172.527 69.7336 172.8 71.107 172.8C71.8403 172.8 72.4136 172.693 72.827 172.48C73.2536 172.253 73.467 171.94 73.467 171.54C73.467 171.193 73.3203 170.933 73.027 170.76C72.7336 170.573 72.307 170.48 71.747 170.48H69.547V168.54H71.467C72.0136 168.54 72.4336 168.453 72.727 168.28C73.0203 168.107 73.167 167.853 73.167 167.52C73.167 167.173 72.9803 166.907 72.607 166.72C72.247 166.533 71.727 166.44 71.047 166.44C70.007 166.44 68.8736 166.687 67.647 167.18L66.887 165.02C68.3803 164.367 69.8336 164.04 71.247 164.04C72.2203 164.04 73.087 164.16 73.847 164.4C74.6203 164.64 75.227 164.993 75.667 165.46C76.107 165.913 76.327 166.447 76.327 167.06C76.327 167.567 76.1736 168.027 75.867 168.44C75.5603 168.84 75.1403 169.16 74.607 169.4ZM83.9365 175.16C82.8032 175.16 81.7832 174.927 80.8765 174.46C79.9832 173.98 79.2832 173.32 78.7765 172.48C78.2698 171.64 78.0165 170.687 78.0165 169.62C78.0165 168.553 78.2698 167.6 78.7765 166.76C79.2832 165.92 79.9832 165.267 80.8765 164.8C81.7832 164.32 82.8032 164.08 83.9365 164.08C85.0698 164.08 86.0832 164.32 86.9765 164.8C87.8698 165.267 88.5698 165.92 89.0765 166.76C89.5832 167.6 89.8365 168.553 89.8365 169.62C89.8365 170.687 89.5832 171.64 89.0765 172.48C88.5698 173.32 87.8698 173.98 86.9765 174.46C86.0832 174.927 85.0698 175.16 83.9365 175.16ZM83.9365 172.6C84.7365 172.6 85.3898 172.333 85.8965 171.8C86.4165 171.253 86.6765 170.527 86.6765 169.62C86.6765 168.713 86.4165 167.993 85.8965 167.46C85.3898 166.913 84.7365 166.64 83.9365 166.64C83.1365 166.64 82.4765 166.913 81.9565 167.46C81.4365 167.993 81.1765 168.713 81.1765 169.62C81.1765 170.527 81.4365 171.253 81.9565 171.8C82.4765 172.333 83.1365 172.6 83.9365 172.6ZM100.202 169.38C101.469 169.807 102.102 170.66 102.102 171.94C102.102 172.913 101.736 173.667 101.002 174.2C100.269 174.733 99.1758 175 97.7224 175H91.9824V164.24H97.4824C98.8291 164.24 99.8824 164.487 100.642 164.98C101.402 165.46 101.782 166.14 101.782 167.02C101.782 167.553 101.642 168.027 101.362 168.44C101.096 168.84 100.709 169.153 100.202 169.38ZM94.8424 168.66H97.2024C98.2958 168.66 98.8424 168.273 98.8424 167.5C98.8424 166.74 98.2958 166.36 97.2024 166.36H94.8424V168.66ZM97.4624 172.88C98.6091 172.88 99.1824 172.487 99.1824 171.7C99.1824 171.287 99.0491 170.987 98.7824 170.8C98.5158 170.6 98.0958 170.5 97.5224 170.5H94.8424V172.88H97.4624ZM108.604 164.08C110.27 164.08 111.55 164.48 112.444 165.28C113.337 166.067 113.784 167.26 113.784 168.86V175H110.864V173.66C110.277 174.66 109.184 175.16 107.584 175.16C106.757 175.16 106.037 175.02 105.424 174.74C104.824 174.46 104.364 174.073 104.044 173.58C103.724 173.087 103.564 172.527 103.564 171.9C103.564 170.9 103.937 170.113 104.684 169.54C105.444 168.967 106.61 168.68 108.184 168.68H110.664C110.664 168 110.457 167.48 110.044 167.12C109.63 166.747 109.01 166.56 108.184 166.56C107.61 166.56 107.044 166.653 106.484 166.84C105.937 167.013 105.47 167.253 105.084 167.56L103.964 165.38C104.55 164.967 105.25 164.647 106.064 164.42C106.89 164.193 107.737 164.08 108.604 164.08ZM108.364 173.06C108.897 173.06 109.37 172.94 109.784 172.7C110.197 172.447 110.49 172.08 110.664 171.6V170.5H108.524C107.244 170.5 106.604 170.92 106.604 171.76C106.604 172.16 106.757 172.48 107.064 172.72C107.384 172.947 107.817 173.06 108.364 173.06ZM116.494 164.24H119.594V168.44H124.274V164.24H127.394V175H124.274V170.98H119.594V175H116.494V164.24ZM130.381 164.24H133.481V170.64L138.721 164.24H141.581V175H138.481V168.6L133.261 175H130.381V164.24ZM155.04 169.66C155.04 169.7 155.02 169.98 154.98 170.5H146.84C146.987 171.167 147.333 171.693 147.88 172.08C148.427 172.467 149.107 172.66 149.92 172.66C150.48 172.66 150.973 172.58 151.4 172.42C151.84 172.247 152.247 171.98 152.62 171.62L154.28 173.42C153.267 174.58 151.787 175.16 149.84 175.16C148.627 175.16 147.553 174.927 146.62 174.46C145.687 173.98 144.967 173.32 144.46 172.48C143.953 171.64 143.7 170.687 143.7 169.62C143.7 168.567 143.947 167.62 144.44 166.78C144.947 165.927 145.633 165.267 146.5 164.8C147.38 164.32 148.36 164.08 149.44 164.08C150.493 164.08 151.447 164.307 152.3 164.76C153.153 165.213 153.82 165.867 154.3 166.72C154.793 167.56 155.04 168.54 155.04 169.66ZM149.46 166.44C148.753 166.44 148.16 166.64 147.68 167.04C147.2 167.44 146.907 167.987 146.8 168.68H152.1C151.993 168 151.7 167.46 151.22 167.06C150.74 166.647 150.153 166.44 149.46 166.44Z" fill="#191A38"/>
<g style="mix-blend-mode:multiply">
<mask id="path-3-outside-1_0_1" maskUnits="userSpaceOnUse" x="-4.69885" y="1.2351" width="178.191" height="178.191" fill="black">
<rect fill="white" x="-4.69885" y="1.2351" width="178.191" height="178.191"/>
<path d="M10.1504 88.2092L94.4779 70.4729L158.181 91.8211L73.9624 112.029L10.1504 88.2092Z"/>
</mask>
<path d="M10.1504 88.2092L94.4779 70.4729L158.181 91.8211L73.9624 112.029L10.1504 88.2092Z" stroke="url(#paint1_linear_0_1)" stroke-width="20" stroke-linejoin="round" mask="url(#path-3-outside-1_0_1)"/>
</g>
<g style="mix-blend-mode:multiply">
<mask id="path-4-outside-2_0_1" maskUnits="userSpaceOnUse" x="-4.69885" y="18.2351" width="178.191" height="178.191" fill="black">
<rect fill="white" x="-4.69885" y="18.2351" width="178.191" height="178.191"/>
<path d="M10.1504 105.209L94.4779 87.4729L158.181 108.821L73.9624 129.029L10.1504 105.209Z"/>
</mask>
<path d="M10.1504 105.209L94.4779 87.4729L158.181 108.821L73.9624 129.029L10.1504 105.209Z" stroke="url(#paint2_linear_0_1)" stroke-width="20" stroke-linejoin="round" mask="url(#path-4-outside-2_0_1)"/>
</g>
<g style="mix-blend-mode:multiply">
<mask id="path-5-outside-3_0_1" maskUnits="userSpaceOnUse" x="57.8658" y="-4.91026" width="85.4449" height="113.995" fill="black">
<rect fill="white" x="57.8658" y="-4.91026" width="85.4449" height="113.995"/>
<path d="M93.3421 78.6379L128.842 17.15C125.378 12.604 122.769 11.2124 117.151 10.4L81.6507 71.8879L78.2129 91.8423L93.3421 78.6379Z"/>
</mask>
<path d="M93.3421 78.6379L128.842 17.15C125.378 12.604 122.769 11.2124 117.151 10.4L81.6507 71.8879L78.2129 91.8423L93.3421 78.6379Z" stroke="url(#paint3_linear_0_1)" stroke-width="20" stroke-linejoin="round" mask="url(#path-5-outside-3_0_1)"/>
</g>
</g>
<defs>
<linearGradient id="paint0_linear_0_1" x1="-82.8496" y1="-790" x2="-82.8496" y2="280" gradientUnits="userSpaceOnUse">
<stop stop-color="#C9C9C9"/>
<stop offset="0.15625" stop-color="#E1E1E1"/>
<stop offset="0.333333" stop-color="#D8D5D5"/>
<stop offset="0.411458" stop-color="#BBBBBB"/>
<stop offset="0.5625" stop-color="#DCDBDB"/>
<stop offset="0.75" stop-color="#F3F0F0"/>
<stop offset="1" stop-color="#F3F0F0"/>
</linearGradient>
<linearGradient id="paint1_linear_0_1" x1="31.2041" y1="94.0289" x2="135.938" y2="79.6013" gradientUnits="userSpaceOnUse">
<stop stop-color="#0041F7"/>
<stop offset="0.697917" stop-color="#55A8E3"/>
</linearGradient>
<linearGradient id="paint2_linear_0_1" x1="31.2041" y1="111.029" x2="135.938" y2="96.6013" gradientUnits="userSpaceOnUse">
<stop stop-color="#0041F7"/>
<stop offset="0.697917" stop-color="#55A8E3"/>
</linearGradient>
<linearGradient id="paint3_linear_0_1" x1="88.7295" y1="55.7531" x2="108.716" y2="72.3293" gradientUnits="userSpaceOnUse">
<stop offset="0.235261" stop-color="#FF7A00"/>
<stop offset="1" stop-color="#FFD600"/>
</linearGradient>
<clipPath id="clip0_0_1">
<rect width="1280" height="6262" fill="white" transform="translate(-723 -870)"/>
</clipPath>
</defs>
</svg>
